<svg width="12" height="13" viewBox="0 0 12 13" fill="none" xmlns="http://www.w3.org/2000/svg">
<path d="M3.6665 1.1875C3.6665 0.93886 3.75869 0.700403 3.92279 0.524587C4.08688 0.348772 4.30944 0.25 4.5415 0.25H7.45817C7.69024 0.25 7.9128 0.348772 8.07689 0.524587C8.24098 0.700403 8.33317 0.93886 8.33317 1.1875V1.8125C8.33317 2.06114 8.24098 2.2996 8.07689 2.47541C7.9128 2.65123 7.69024 2.75 7.45817 2.75H4.5415C4.30944 2.75 4.08688 2.65123 3.92279 2.47541C3.75869 2.2996 3.6665 2.06114 3.6665 1.8125V1.1875Z" fill="#D3D3D3"/>
<path fill-rule="evenodd" clip-rule="evenodd" d="M2.79167 1.52312C2.05783 1.56687 1.59467 1.69187 1.26275 2.04812C0.75 2.5975 0.75 3.48125 0.75 5.24875V8.99875C0.75 10.7669 0.75 11.6506 1.26275 12.2C1.77492 12.7487 2.60033 12.7487 4.25 12.7487H7.75C9.39967 12.7487 10.2251 12.7487 10.7372 12.2C11.25 11.65 11.25 10.7669 11.25 8.99875V5.24875C11.25 3.48125 11.25 2.5975 10.7372 2.04812C10.4053 1.69187 9.94217 1.56687 9.20833 1.52312V1.8125C9.20833 2.30978 9.02396 2.78669 8.69577 3.13832C8.36758 3.48996 7.92246 3.6875 7.45833 3.6875H4.54167C4.07754 3.6875 3.63242 3.48996 3.30423 3.13832C2.97604 2.78669 2.79167 2.30978 2.79167 1.8125V1.52312ZM2.64583 5.5625C2.64583 5.43818 2.69193 5.31895 2.77397 5.23104C2.85602 5.14314 2.9673 5.09375 3.08333 5.09375H8.91667C9.0327 5.09375 9.14398 5.14314 9.22603 5.23104C9.30807 5.31895 9.35417 5.43818 9.35417 5.5625C9.35417 5.68682 9.30807 5.80605 9.22603 5.89396C9.14398 5.98186 9.0327 6.03125 8.91667 6.03125H3.08333C2.9673 6.03125 2.85602 5.98186 2.77397 5.89396C2.69193 5.80605 2.64583 5.68682 2.64583 5.5625ZM3.22917 7.75C3.22917 7.62568 3.27526 7.50645 3.35731 7.41854C3.43935 7.33064 3.55063 7.28125 3.66667 7.28125H8.33333C8.44937 7.28125 8.56065 7.33064 8.64269 7.41854C8.72474 7.50645 8.77083 7.62568 8.77083 7.75C8.77083 7.87432 8.72474 7.99355 8.64269 8.08146C8.56065 8.16936 8.44937 8.21875 8.33333 8.21875H3.66667C3.55063 8.21875 3.43935 8.16936 3.35731 8.08146C3.27526 7.99355 3.22917 7.87432 3.22917 7.75ZM3.8125 9.9375C3.8125 9.81318 3.85859 9.69395 3.94064 9.60604C4.02269 9.51814 4.13397 9.46875 4.25 9.46875H7.75C7.86603 9.46875 7.97731 9.51814 8.05936 9.60604C8.14141 9.69395 8.1875 9.81318 8.1875 9.9375C8.1875 10.0618 8.14141 10.181 8.05936 10.269C7.97731 10.3569 7.86603 10.4062 7.75 10.4062H4.25C4.13397 10.4062 4.02269 10.3569 3.94064 10.269C3.85859 10.181 3.8125 10.0618 3.8125 9.9375Z" fill="#D3D3D3"/>
</svg>
