<svg width="11" height="13" viewBox="0 0 11 13" fill="none" xmlns="http://www.w3.org/2000/svg">
<path d="M2.9165 0.9375C2.9165 0.68886 3.00869 0.450403 3.17279 0.274587C3.33688 0.0987721 3.55944 0 3.7915 0H6.70817C6.94024 0 7.1628 0.0987721 7.32689 0.274587C7.49098 0.450403 7.58317 0.68886 7.58317 0.9375V1.5625C7.58317 1.81114 7.49098 2.0496 7.32689 2.22541C7.1628 2.40123 6.94024 2.5 6.70817 2.5H3.7915C3.55944 2.5 3.33688 2.40123 3.17279 2.22541C3.00869 2.0496 2.9165 1.81114 2.9165 1.5625V0.9375Z" fill="white"/>
<path fill-rule="evenodd" clip-rule="evenodd" d="M2.04167 1.27313C1.30783 1.31688 0.844667 1.44188 0.51275 1.79813C-3.47694e-08 2.34751 0 3.23126 0 4.99876V8.74876C0 10.5169 -3.47694e-08 11.4006 0.51275 11.95C1.02492 12.4988 1.85033 12.4988 3.5 12.4988H7C8.64967 12.4988 9.47508 12.4988 9.98725 11.95C10.5 11.4 10.5 10.5169 10.5 8.74876V4.99876C10.5 3.23126 10.5 2.34751 9.98725 1.79813C9.65533 1.44188 9.19217 1.31688 8.45833 1.27313V1.56251C8.45833 2.05979 8.27396 2.5367 7.94577 2.88833C7.61758 3.23996 7.17246 3.43751 6.70833 3.43751H3.79167C3.32754 3.43751 2.88242 3.23996 2.55423 2.88833C2.22604 2.5367 2.04167 2.05979 2.04167 1.56251V1.27313ZM1.89583 5.31251C1.89583 5.18819 1.94193 5.06896 2.02397 4.98105C2.10602 4.89314 2.2173 4.84376 2.33333 4.84376H8.16667C8.2827 4.84376 8.39398 4.89314 8.47603 4.98105C8.55807 5.06896 8.60417 5.18819 8.60417 5.31251C8.60417 5.43683 8.55807 5.55606 8.47603 5.64396C8.39398 5.73187 8.2827 5.78126 8.16667 5.78126H2.33333C2.2173 5.78126 2.10602 5.73187 2.02397 5.64396C1.94193 5.55606 1.89583 5.43683 1.89583 5.31251ZM2.47917 7.50001C2.47917 7.37569 2.52526 7.25646 2.60731 7.16855C2.68935 7.08064 2.80063 7.03126 2.91667 7.03126H7.58333C7.69937 7.03126 7.81065 7.08064 7.89269 7.16855C7.97474 7.25646 8.02083 7.37569 8.02083 7.50001C8.02083 7.62433 7.97474 7.74356 7.89269 7.83146C7.81065 7.91937 7.69937 7.96876 7.58333 7.96876H2.91667C2.80063 7.96876 2.68935 7.91937 2.60731 7.83146C2.52526 7.74356 2.47917 7.62433 2.47917 7.50001ZM3.0625 9.68751C3.0625 9.56319 3.10859 9.44396 3.19064 9.35605C3.27269 9.26814 3.38397 9.21876 3.5 9.21876H7C7.11603 9.21876 7.22731 9.26814 7.30936 9.35605C7.39141 9.44396 7.4375 9.56319 7.4375 9.68751C7.4375 9.81183 7.39141 9.93106 7.30936 10.019C7.22731 10.1069 7.11603 10.1563 7 10.1563H3.5C3.38397 10.1563 3.27269 10.1069 3.19064 10.019C3.10859 9.93106 3.0625 9.81183 3.0625 9.68751Z" fill="white"/>
</svg>
