<svg width="91" height="38" viewBox="0 0 91 38" fill="none" xmlns="http://www.w3.org/2000/svg">
<rect x="0.5" y="0.5" width="90" height="37" rx="7.5" fill="#F6F6F6"/>
<path d="M26.1562 12.6406V11.0391H27.5312V12.6562C28.4583 12.776 29.2135 13.1094 29.7969 13.6562C30.3802 14.1979 30.7344 14.9583 30.8594 15.9375H29.4531C29.3333 15.276 29.0547 14.7578 28.6172 14.3828C28.1797 14.0078 27.5625 13.8203 26.7656 13.8203C26.4479 13.8203 26.151 13.8542 25.875 13.9219C25.599 13.9844 25.3411 14.0859 25.1016 14.2266C24.862 14.3672 24.6719 14.5677 24.5312 14.8281C24.3958 15.0833 24.3281 15.388 24.3281 15.7422C24.3281 16.0964 24.4062 16.3932 24.5625 16.6328C24.7188 16.8724 24.9271 17.0547 25.1875 17.1797C25.4531 17.3047 25.7552 17.4062 26.0938 17.4844C26.4375 17.5625 26.7969 17.6302 27.1719 17.6875C27.5521 17.7396 27.9297 17.8021 28.3047 17.875C28.6797 17.9427 29.0365 18.0495 29.375 18.1953C29.7188 18.3359 30.0208 18.5182 30.2812 18.7422C30.5469 18.9609 30.7578 19.263 30.9141 19.6484C31.0703 20.0339 31.1484 20.4922 31.1484 21.0234C31.1484 23.0443 29.9427 24.1016 27.5312 24.1953V25.7578H26.1562V24.1406C23.8854 23.8698 22.6589 22.6484 22.4766 20.4766H23.8828C23.9766 21.3255 24.3073 21.9557 24.875 22.3672C25.4427 22.7734 26.2005 22.9766 27.1484 22.9766C27.5078 22.9766 27.8333 22.9453 28.125 22.8828C28.4219 22.8203 28.6979 22.7188 28.9531 22.5781C29.2135 22.4375 29.4141 22.237 29.5547 21.9766C29.7005 21.7109 29.7734 21.3932 29.7734 21.0234C29.7734 20.6432 29.6953 20.3255 29.5391 20.0703C29.3828 19.8099 29.1719 19.612 28.9062 19.4766C28.6458 19.3359 28.3438 19.224 28 19.1406C27.6615 19.0573 27.3021 18.9896 26.9219 18.9375C26.5469 18.8802 26.1719 18.8177 25.7969 18.75C25.4219 18.6823 25.0625 18.5833 24.7188 18.4531C24.3802 18.3177 24.0781 18.1458 23.8125 17.9375C23.5521 17.7292 23.3438 17.4401 23.1875 17.0703C23.0312 16.6953 22.9531 16.2526 22.9531 15.7422C22.9531 15.2943 23.0182 14.8958 23.1484 14.5469C23.2839 14.1927 23.4557 13.9062 23.6641 13.6875C23.8724 13.4635 24.1224 13.276 24.4141 13.125C24.7057 12.9688 24.9896 12.8568 25.2656 12.7891C25.5469 12.7161 25.8438 12.6667 26.1562 12.6406Z" fill="#7CE2B8"/>
<path d="M38.9844 24.1953C38.1771 24.1953 37.4245 24.0495 36.7266 23.7578C36.0286 23.4661 35.4323 23.0677 34.9375 22.5625C34.4427 22.0521 34.0547 21.4375 33.7734 20.7188C33.4922 20 33.3516 19.2266 33.3516 18.3984C33.3516 17.2943 33.5911 16.3021 34.0703 15.4219C34.5547 14.5365 35.2266 13.8464 36.0859 13.3516C36.9453 12.8568 37.9115 12.6094 38.9844 12.6094C40.3177 12.6094 41.4557 12.9818 42.3984 13.7266C43.3411 14.4714 43.9844 15.4635 44.3281 16.7031H42.8906C42.5781 15.8229 42.0833 15.1302 41.4062 14.625C40.7344 14.1146 39.9271 13.8594 38.9844 13.8594C37.75 13.8594 36.7318 14.2865 35.9297 15.1406C35.1276 15.9896 34.7266 17.0755 34.7266 18.3984C34.7266 19.7214 35.1276 20.8099 35.9297 21.6641C36.7318 22.5182 37.75 22.9453 38.9844 22.9453C39.9271 22.9453 40.7344 22.6927 41.4062 22.1875C42.0833 21.6771 42.5781 20.9792 42.8906 20.0938H44.3281C43.9844 21.3333 43.3411 22.3281 42.3984 23.0781C41.4557 23.8229 40.3177 24.1953 38.9844 24.1953ZM56.4219 24H55.0156L53.7812 21.2188H47.9922L46.7578 24H45.3516L50.3125 12.7969H51.4609L56.4219 24ZM48.5234 20H53.2578L50.9219 14.7188H50.8594L48.5234 20ZM58.5078 24V12.7969H62.7656C63.5625 12.7969 64.3047 12.9323 64.9922 13.2031C65.6849 13.474 66.2812 13.8516 66.7812 14.3359C67.2865 14.8151 67.6823 15.4062 67.9688 16.1094C68.2552 16.8125 68.3984 17.5755 68.3984 18.3984C68.3984 19.2214 68.2552 19.9844 67.9688 20.6875C67.6823 21.3906 67.2865 21.9844 66.7812 22.4688C66.2812 22.9479 65.6849 23.3229 64.9922 23.5938C64.3047 23.8646 63.5625 24 62.7656 24H58.5078ZM59.8828 22.75H62.7656C63.9896 22.75 65.0052 22.3516 65.8125 21.5547C66.6198 20.7526 67.0234 19.7005 67.0234 18.3984C67.0234 17.0964 66.6198 16.0469 65.8125 15.25C65.0052 14.4479 63.9896 14.0469 62.7656 14.0469H59.8828V22.75Z" fill="#1B1B1B"/>
<rect x="0.5" y="0.5" width="90" height="37" rx="7.5" stroke="#A6F5D4"/>
</svg>
