<svg width="91" height="38" viewBox="0 0 91 38" fill="none" xmlns="http://www.w3.org/2000/svg">
<rect x="0.5" y="0.5" width="90" height="37" rx="7.5" fill="#F6F6F6"/>
<path d="M27.8281 12.6094C28.9792 12.6094 29.9115 12.9427 30.625 13.6094C31.3438 14.2708 31.8073 15.2266 32.0156 16.4766H30.5781C30.2656 14.7318 29.349 13.8594 27.8281 13.8594C26.2708 13.8594 25.3151 14.8073 24.9609 16.7031H28.5156V17.9219H22.2266V16.7031H23.5859C23.7943 15.4271 24.2526 14.4271 24.9609 13.7031C25.6693 12.974 26.625 12.6094 27.8281 12.6094ZM27.8281 24.1953C26.625 24.1953 25.6693 23.8307 24.9609 23.1016C24.2526 22.3724 23.7943 21.3698 23.5859 20.0938H22.2266V18.8828H28.5156V20.0938H24.9609C25.3151 21.9948 26.2708 22.9453 27.8281 22.9453C29.349 22.9453 30.2656 22.0703 30.5781 20.3203H32.0156C31.8073 21.5703 31.3438 22.5286 30.625 23.1953C29.9115 23.862 28.9792 24.1953 27.8281 24.1953Z" fill="#7CE2B8"/>
<path d="M36.2656 18.7812V22.75H43.4688V24H34.8906V12.7969H43.4688V14.0469H36.2656V17.5391H42.6719V18.7812H36.2656ZM52.8438 23.875C52.2656 24.0885 51.6354 24.1953 50.9531 24.1953C50.2708 24.1953 49.638 24.0885 49.0547 23.875C48.4766 23.6562 47.9714 23.3411 47.5391 22.9297C47.1068 22.5182 46.7656 21.9948 46.5156 21.3594C46.2708 20.7188 46.1484 20 46.1484 19.2031V12.7969H47.5234V19.2031C47.5234 20.401 47.8438 21.3255 48.4844 21.9766C49.1302 22.6224 49.9531 22.9453 50.9531 22.9453C51.9531 22.9453 52.7734 22.6224 53.4141 21.9766C54.0547 21.3255 54.375 20.401 54.375 19.2031V12.7969H55.75V19.2031C55.75 20 55.6276 20.7188 55.3828 21.3594C55.138 21.9948 54.7969 22.5182 54.3594 22.9297C53.9271 23.3411 53.4219 23.6562 52.8438 23.875ZM66.9219 24L64.2031 19.4531H60.2656V24H58.8906V12.7969H64.9688C66.0417 12.7969 66.9167 13.0911 67.5938 13.6797C68.276 14.2682 68.6172 15.0833 68.6172 16.125C68.6172 17.0312 68.3568 17.7682 67.8359 18.3359C67.3151 18.8984 66.6224 19.25 65.7578 19.3906L68.5234 24H66.9219ZM60.2656 18.2109H64.9688C65.7031 18.2109 66.2656 18.0208 66.6562 17.6406C67.0469 17.2604 67.2422 16.7552 67.2422 16.125C67.2422 15.4948 67.0469 14.9922 66.6562 14.6172C66.2656 14.237 65.7031 14.0469 64.9688 14.0469H60.2656V18.2109Z" fill="#1B1B1B"/>
<rect x="0.5" y="0.5" width="90" height="37" rx="7.5" stroke="#A6F5D4"/>
</svg>
