<svg width="91" height="38" viewBox="0 0 91 38" fill="none" xmlns="http://www.w3.org/2000/svg">
<rect x="0.5" y="0.5" width="90" height="37" rx="7.5" fill="#F6F6F6"/>
<path d="M22.2734 19.6797V18.4297H23.8594C23.8125 18.237 23.7292 17.9844 23.6094 17.6719C23.4948 17.3542 23.4036 17.0547 23.3359 16.7734C23.2682 16.487 23.2344 16.1771 23.2344 15.8438C23.2344 14.8125 23.5651 14.0156 24.2266 13.4531C24.8932 12.8906 25.8099 12.6094 26.9766 12.6094C27.6068 12.6094 28.1693 12.6953 28.6641 12.8672C29.1589 13.0391 29.5677 13.2812 29.8906 13.5938C30.2135 13.901 30.4688 14.2552 30.6562 14.6562C30.8438 15.0573 30.9714 15.5052 31.0391 16H29.6328C29.4974 15.2969 29.2266 14.7656 28.8203 14.4062C28.4141 14.0417 27.7995 13.8594 26.9766 13.8594C25.3984 13.8594 24.6094 14.5208 24.6094 15.8438C24.6094 16.224 24.7057 16.6823 24.8984 17.2188C25.0911 17.75 25.2135 18.1536 25.2656 18.4297H28.9922V19.6797H25.3281C25.2708 20.6797 24.8698 21.6719 24.125 22.6562V22.7188H31.0391V24H22.2734V23.0391C23.3047 21.8984 23.8646 20.7786 23.9531 19.6797H22.2734Z" fill="#7CE2B8"/>
<path d="M38.8828 24.1953C38.0755 24.1953 37.3229 24.0495 36.625 23.7578C35.9271 23.4661 35.3307 23.0677 34.8359 22.5625C34.3411 22.0521 33.9531 21.4375 33.6719 20.7188C33.3906 20 33.25 19.2266 33.25 18.3984C33.25 17.2943 33.4896 16.3021 33.9688 15.4219C34.4531 14.5365 35.125 13.8464 35.9844 13.3516C36.8438 12.8568 37.8099 12.6094 38.8828 12.6094C40.1693 12.6094 41.276 12.9635 42.2031 13.6719C43.1354 14.375 43.7891 15.3229 44.1641 16.5156H42.7266C42.3828 15.6771 41.8828 15.026 41.2266 14.5625C40.5755 14.0938 39.7943 13.8594 38.8828 13.8594C37.6484 13.8594 36.6302 14.2865 35.8281 15.1406C35.026 15.9896 34.625 17.0755 34.625 18.3984C34.625 19.7266 35.0286 20.8177 35.8359 21.6719C36.6432 22.5208 37.6797 22.9453 38.9453 22.9453C40.0443 22.9453 40.9557 22.6198 41.6797 21.9688C42.4089 21.3125 42.8307 20.4531 42.9453 19.3906H38.6562V18.1406H44.2578V24H43.0156V22.0781H42.9453C42.5599 22.776 42.0078 23.3047 41.2891 23.6641C40.5755 24.0182 39.7734 24.1953 38.8828 24.1953ZM47.3281 24V12.7969H53.0234C54.0703 12.7969 54.9245 13.0625 55.5859 13.5938C56.2474 14.125 56.5781 14.8203 56.5781 15.6797C56.5781 16.7057 56.0755 17.5156 55.0703 18.1094V18.1797C55.6172 18.4036 56.0573 18.7734 56.3906 19.2891C56.7292 19.8047 56.8984 20.3724 56.8984 20.9922C56.8984 21.8672 56.5833 22.5885 55.9531 23.1562C55.3229 23.7188 54.474 24 53.4062 24H47.3281ZM48.7031 17.6641H53.0234C53.6901 17.6641 54.2188 17.5 54.6094 17.1719C55.0052 16.8438 55.2031 16.4062 55.2031 15.8594C55.2031 15.3125 55.0052 14.875 54.6094 14.5469C54.2188 14.2135 53.6901 14.0469 53.0234 14.0469H48.7031V17.6641ZM48.7031 22.75H53.25C53.9792 22.75 54.5391 22.5729 54.9297 22.2188C55.3255 21.8594 55.5234 21.3958 55.5234 20.8281C55.5234 20.2552 55.3177 19.7943 54.9062 19.4453C54.4948 19.0911 53.9219 18.9141 53.1875 18.9141H48.7031V22.75ZM65.5625 19.7734H60.8594V24H59.4844V12.7969H65.5625C66.6302 12.7969 67.5052 13.1094 68.1875 13.7344C68.8698 14.3594 69.2109 15.2109 69.2109 16.2891C69.2109 17.3672 68.8698 18.2188 68.1875 18.8438C67.5052 19.4635 66.6302 19.7734 65.5625 19.7734ZM60.8594 18.5312H65.5625C66.2917 18.5312 66.8516 18.3255 67.2422 17.9141C67.638 17.4974 67.8359 16.9557 67.8359 16.2891C67.8359 15.6224 67.638 15.0833 67.2422 14.6719C66.8516 14.2552 66.2917 14.0469 65.5625 14.0469H60.8594V18.5312Z" fill="#1B1B1B"/>
<rect x="0.5" y="0.5" width="90" height="37" rx="7.5" stroke="#A6F5D4"/>
</svg>
