<svg width="91" height="38" viewBox="0 0 91 38" fill="none" xmlns="http://www.w3.org/2000/svg">
<rect x="0.5" y="0.5" width="90" height="37" rx="7.5" fill="#F6F6F6"/>
<path d="M31.8281 18.3047V19.5547H24.2734V18.3047H26.8047V18.2422L23.25 12.7969H24.7812L28.0156 17.8594H28.0781L31.3125 12.7969H32.8516L29.2969 18.2422V18.3047H31.8281ZM24.2734 21.7578V20.5156H31.8281V21.7578H28.7344V24H27.3594V21.7578H24.2734Z" fill="#7CE2B8"/>
<path d="M34.6016 24V22.7188H40.4922C40.9714 22.7188 41.3047 22.625 41.4922 22.4375C41.6797 22.25 41.7734 21.9167 41.7734 21.4375V12.7969H43.1484V21.6328C43.1484 22.4349 42.9531 23.0312 42.5625 23.4219C42.1771 23.8073 41.5833 24 40.7812 24H34.6016ZM52.5469 19.7734H47.8438V24H46.4688V12.7969H52.5469C53.6146 12.7969 54.4896 13.1094 55.1719 13.7344C55.8542 14.3594 56.1953 15.2109 56.1953 16.2891C56.1953 17.3672 55.8542 18.2188 55.1719 18.8438C54.4896 19.4635 53.6146 19.7734 52.5469 19.7734ZM47.8438 18.5312H52.5469C53.276 18.5312 53.8359 18.3255 54.2266 17.9141C54.6224 17.4974 54.8203 16.9557 54.8203 16.2891C54.8203 15.6224 54.6224 15.0833 54.2266 14.6719C53.8359 14.2552 53.276 14.0469 52.5469 14.0469H47.8438V18.5312ZM62.1641 24V19.25L57.2812 12.7969H58.9453L62.8516 17.9531L66.75 12.7969H68.4141L63.5391 19.25V24H62.1641Z" fill="#1B1B1B"/>
<rect x="0.5" y="0.5" width="90" height="37" rx="7.5" stroke="#A6F5D4"/>
</svg>
