<svg width="91" height="38" viewBox="0 0 91 38" fill="none" xmlns="http://www.w3.org/2000/svg">
<rect x="0.5" y="0.5" width="90" height="37" rx="7.5" fill="#F6F6F6"/>
<path d="M20.8125 24V12.7969H22.0938V19.2656H23.3438L26.5078 16H28.1406L24.4297 19.8047L28.1719 24H26.5391L23.375 20.4141H22.0938V24H20.8125ZM29.875 24V16H31.1562V17.1875H31.2188C31.5104 16.7969 31.8594 16.5026 32.2656 16.3047C32.6771 16.1016 33.2031 16 33.8438 16H35.9219V17.1875H33.8438C33.0208 17.1875 32.3672 17.3984 31.8828 17.8203C31.3984 18.237 31.1562 18.8359 31.1562 19.6172V24H29.875Z" fill="#7CE2B8"/>
<path d="M42.7031 24.1953C41.9531 24.1953 41.276 24.1276 40.6719 23.9922C40.0677 23.8568 39.5234 23.6458 39.0391 23.3594C38.5599 23.0729 38.1745 22.6875 37.8828 22.2031C37.5964 21.7135 37.4219 21.138 37.3594 20.4766H38.7734C38.987 22.1432 40.2969 22.9766 42.7031 22.9766C44.8177 22.9766 45.875 22.3255 45.875 21.0234C45.875 20.7578 45.8359 20.5234 45.7578 20.3203C45.6797 20.112 45.5417 19.9375 45.3438 19.7969C45.1458 19.6562 44.9661 19.5417 44.8047 19.4531C44.6432 19.3594 44.388 19.276 44.0391 19.2031C43.6901 19.1302 43.4219 19.0807 43.2344 19.0547C43.0521 19.0234 42.7474 18.9792 42.3203 18.9219C41.9089 18.8698 41.5964 18.8281 41.3828 18.7969C41.1693 18.7604 40.875 18.7031 40.5 18.625C40.1302 18.5417 39.8438 18.4557 39.6406 18.3672C39.4375 18.2786 39.2031 18.1562 38.9375 18C38.6771 17.8385 38.4792 17.6589 38.3438 17.4609C38.2083 17.263 38.0911 17.0182 37.9922 16.7266C37.8932 16.4297 37.8438 16.1016 37.8438 15.7422C37.8438 15.237 37.9427 14.7917 38.1406 14.4062C38.3438 14.0156 38.5938 13.7109 38.8906 13.4922C39.1927 13.2682 39.5495 13.0885 39.9609 12.9531C40.3776 12.8125 40.7656 12.7214 41.125 12.6797C41.4896 12.6328 41.8672 12.6094 42.2578 12.6094C43.1224 12.6094 43.8828 12.724 44.5391 12.9531C45.1953 13.1823 45.7396 13.5495 46.1719 14.0547C46.6042 14.5599 46.8672 15.1875 46.9609 15.9375H45.5547C45.4349 15.2812 45.1042 14.7656 44.5625 14.3906C44.0208 14.0104 43.2526 13.8203 42.2578 13.8203C41.8568 13.8203 41.4844 13.8542 41.1406 13.9219C40.7969 13.9844 40.4766 14.0859 40.1797 14.2266C39.8828 14.3672 39.6484 14.5677 39.4766 14.8281C39.3047 15.0833 39.2188 15.388 39.2188 15.7422C39.2188 16.0286 39.2839 16.2812 39.4141 16.5C39.5495 16.7135 39.7083 16.8828 39.8906 17.0078C40.0729 17.1276 40.3333 17.2344 40.6719 17.3281C41.0104 17.4219 41.3099 17.4896 41.5703 17.5312C41.8359 17.5729 42.1875 17.6224 42.625 17.6797C43.0469 17.7318 43.3672 17.776 43.5859 17.8125C43.8047 17.8438 44.1042 17.901 44.4844 17.9844C44.8698 18.0677 45.1667 18.1562 45.375 18.25C45.5885 18.3438 45.8307 18.474 46.1016 18.6406C46.3776 18.8073 46.5859 18.9974 46.7266 19.2109C46.8672 19.4193 46.9896 19.6797 47.0938 19.9922C47.1979 20.2995 47.25 20.6432 47.25 21.0234C47.25 23.138 45.7344 24.1953 42.7031 24.1953ZM51.3047 18.7812V22.75H58.5078V24H49.9297V12.7969H58.5078V14.0469H51.3047V17.5391H57.7109V18.7812H51.3047ZM61.5078 24V12.7969H62.8828V17.5391H64.5625L69.0469 12.7969H70.8203L65.7031 18.2109L70.9141 24H69.0781L64.4062 18.7812H62.8828V24H61.5078Z" fill="#1B1B1B"/>
<rect x="0.5" y="0.5" width="90" height="37" rx="7.5" stroke="#A6F5D4"/>
</svg>
