<svg width="91" height="38" viewBox="0 0 91 38" fill="none" xmlns="http://www.w3.org/2000/svg">
<rect x="0.5" y="0.5" width="90" height="37" rx="7.5" fill="#F6F6F6"/>
<path d="M26.3828 12.6406V11.0391H27.7578V12.6562C28.6849 12.776 29.4401 13.1094 30.0234 13.6562C30.6068 14.1979 30.9609 14.9583 31.0859 15.9375H29.6797C29.5599 15.276 29.2812 14.7578 28.8438 14.3828C28.4062 14.0078 27.7891 13.8203 26.9922 13.8203C26.6745 13.8203 26.3776 13.8542 26.1016 13.9219C25.8255 13.9844 25.5677 14.0859 25.3281 14.2266C25.0885 14.3672 24.8984 14.5677 24.7578 14.8281C24.6224 15.0833 24.5547 15.388 24.5547 15.7422C24.5547 16.0964 24.6328 16.3932 24.7891 16.6328C24.9453 16.8724 25.1536 17.0547 25.4141 17.1797C25.6797 17.3047 25.9818 17.4062 26.3203 17.4844C26.6641 17.5625 27.0234 17.6302 27.3984 17.6875C27.7786 17.7396 28.1562 17.8021 28.5312 17.875C28.9062 17.9427 29.263 18.0495 29.6016 18.1953C29.9453 18.3359 30.2474 18.5182 30.5078 18.7422C30.7734 18.9609 30.9844 19.263 31.1406 19.6484C31.2969 20.0339 31.375 20.4922 31.375 21.0234C31.375 23.0443 30.1693 24.1016 27.7578 24.1953V25.7578H26.3828V24.1406C24.112 23.8698 22.8854 22.6484 22.7031 20.4766H24.1094C24.2031 21.3255 24.5339 21.9557 25.1016 22.3672C25.6693 22.7734 26.4271 22.9766 27.375 22.9766C27.7344 22.9766 28.0599 22.9453 28.3516 22.8828C28.6484 22.8203 28.9245 22.7188 29.1797 22.5781C29.4401 22.4375 29.6406 22.237 29.7812 21.9766C29.9271 21.7109 30 21.3932 30 21.0234C30 20.6432 29.9219 20.3255 29.7656 20.0703C29.6094 19.8099 29.3984 19.612 29.1328 19.4766C28.8724 19.3359 28.5703 19.224 28.2266 19.1406C27.888 19.0573 27.5286 18.9896 27.1484 18.9375C26.7734 18.8802 26.3984 18.8177 26.0234 18.75C25.6484 18.6823 25.2891 18.5833 24.9453 18.4531C24.6068 18.3177 24.3047 18.1458 24.0391 17.9375C23.7786 17.7292 23.5703 17.4401 23.4141 17.0703C23.2578 16.6953 23.1797 16.2526 23.1797 15.7422C23.1797 15.2943 23.2448 14.8958 23.375 14.5469C23.5104 14.1927 23.6823 13.9062 23.8906 13.6875C24.099 13.4635 24.349 13.276 24.6406 13.125C24.9323 12.9688 25.2161 12.8568 25.4922 12.7891C25.7734 12.7161 26.0703 12.6667 26.3828 12.6406Z" fill="#7CE2B8"/>
<path d="M40.5938 23.875C40.0156 24.0885 39.3854 24.1953 38.7031 24.1953C38.0208 24.1953 37.388 24.0885 36.8047 23.875C36.2266 23.6562 35.7214 23.3411 35.2891 22.9297C34.8568 22.5182 34.5156 21.9948 34.2656 21.3594C34.0208 20.7188 33.8984 20 33.8984 19.2031V12.7969H35.2734V19.2031C35.2734 20.401 35.5938 21.3255 36.2344 21.9766C36.8802 22.6224 37.7031 22.9453 38.7031 22.9453C39.7031 22.9453 40.5234 22.6224 41.1641 21.9766C41.8047 21.3255 42.125 20.401 42.125 19.2031V12.7969H43.5V19.2031C43.5 20 43.3776 20.7188 43.1328 21.3594C42.888 21.9948 42.5469 22.5182 42.1094 22.9297C41.6771 23.3411 41.1719 23.6562 40.5938 23.875ZM51.0547 24.1953C50.3047 24.1953 49.6276 24.1276 49.0234 23.9922C48.4193 23.8568 47.875 23.6458 47.3906 23.3594C46.9115 23.0729 46.526 22.6875 46.2344 22.2031C45.9479 21.7135 45.7734 21.138 45.7109 20.4766H47.125C47.3385 22.1432 48.6484 22.9766 51.0547 22.9766C53.1693 22.9766 54.2266 22.3255 54.2266 21.0234C54.2266 20.7578 54.1875 20.5234 54.1094 20.3203C54.0312 20.112 53.8932 19.9375 53.6953 19.7969C53.4974 19.6562 53.3177 19.5417 53.1562 19.4531C52.9948 19.3594 52.7396 19.276 52.3906 19.2031C52.0417 19.1302 51.7734 19.0807 51.5859 19.0547C51.4036 19.0234 51.099 18.9792 50.6719 18.9219C50.2604 18.8698 49.9479 18.8281 49.7344 18.7969C49.5208 18.7604 49.2266 18.7031 48.8516 18.625C48.4818 18.5417 48.1953 18.4557 47.9922 18.3672C47.7891 18.2786 47.5547 18.1562 47.2891 18C47.0286 17.8385 46.8307 17.6589 46.6953 17.4609C46.5599 17.263 46.4427 17.0182 46.3438 16.7266C46.2448 16.4297 46.1953 16.1016 46.1953 15.7422C46.1953 15.237 46.2943 14.7917 46.4922 14.4062C46.6953 14.0156 46.9453 13.7109 47.2422 13.4922C47.5443 13.2682 47.901 13.0885 48.3125 12.9531C48.7292 12.8125 49.1172 12.7214 49.4766 12.6797C49.8411 12.6328 50.2188 12.6094 50.6094 12.6094C51.474 12.6094 52.2344 12.724 52.8906 12.9531C53.5469 13.1823 54.0911 13.5495 54.5234 14.0547C54.9557 14.5599 55.2188 15.1875 55.3125 15.9375H53.9062C53.7865 15.2812 53.4557 14.7656 52.9141 14.3906C52.3724 14.0104 51.6042 13.8203 50.6094 13.8203C50.2083 13.8203 49.8359 13.8542 49.4922 13.9219C49.1484 13.9844 48.8281 14.0859 48.5312 14.2266C48.2344 14.3672 48 14.5677 47.8281 14.8281C47.6562 15.0833 47.5703 15.388 47.5703 15.7422C47.5703 16.0286 47.6354 16.2812 47.7656 16.5C47.901 16.7135 48.0599 16.8828 48.2422 17.0078C48.4245 17.1276 48.6849 17.2344 49.0234 17.3281C49.362 17.4219 49.6615 17.4896 49.9219 17.5312C50.1875 17.5729 50.5391 17.6224 50.9766 17.6797C51.3984 17.7318 51.7188 17.776 51.9375 17.8125C52.1562 17.8438 52.4557 17.901 52.8359 17.9844C53.2214 18.0677 53.5182 18.1562 53.7266 18.25C53.9401 18.3438 54.1823 18.474 54.4531 18.6406C54.7292 18.8073 54.9375 18.9974 55.0781 19.2109C55.2188 19.4193 55.3411 19.6797 55.4453 19.9922C55.5495 20.2995 55.6016 20.6432 55.6016 21.0234C55.6016 23.138 54.0859 24.1953 51.0547 24.1953ZM58.2812 24V12.7969H62.5391C63.3359 12.7969 64.0781 12.9323 64.7656 13.2031C65.4583 13.474 66.0547 13.8516 66.5547 14.3359C67.0599 14.8151 67.4557 15.4062 67.7422 16.1094C68.0286 16.8125 68.1719 17.5755 68.1719 18.3984C68.1719 19.2214 68.0286 19.9844 67.7422 20.6875C67.4557 21.3906 67.0599 21.9844 66.5547 22.4688C66.0547 22.9479 65.4583 23.3229 64.7656 23.5938C64.0781 23.8646 63.3359 24 62.5391 24H58.2812ZM59.6562 22.75H62.5391C63.763 22.75 64.7786 22.3516 65.5859 21.5547C66.3932 20.7526 66.7969 19.7005 66.7969 18.3984C66.7969 17.0964 66.3932 16.0469 65.5859 15.25C64.7786 14.4479 63.763 14.0469 62.5391 14.0469H59.6562V22.75Z" fill="#1B1B1B"/>
<rect x="0.5" y="0.5" width="90" height="37" rx="7.5" stroke="#A6F5D4"/>
</svg>
