<svg width="14" height="15" viewBox="0 0 14 15" fill="none" xmlns="http://www.w3.org/2000/svg">
<path d="M4.66699 2.1875C4.66699 1.93886 4.75918 1.7004 4.92327 1.52459C5.08737 1.34877 5.30993 1.25 5.54199 1.25H8.45866C8.69072 1.25 8.91328 1.34877 9.07738 1.52459C9.24147 1.7004 9.33366 1.93886 9.33366 2.1875V2.8125C9.33366 3.06114 9.24147 3.2996 9.07738 3.47541C8.91328 3.65123 8.69072 3.75 8.45866 3.75H5.54199C5.30993 3.75 5.08737 3.65123 4.92327 3.47541C4.75918 3.2996 4.66699 3.06114 4.66699 2.8125V2.1875Z" fill="#D3D3D3"/>
<path fill-rule="evenodd" clip-rule="evenodd" d="M3.79167 2.52307C3.05783 2.56682 2.59467 2.69182 2.26275 3.04807C1.75 3.59745 1.75 4.4812 1.75 6.2487V9.9987C1.75 11.7668 1.75 12.6506 2.26275 13.1999C2.77492 13.7487 3.60033 13.7487 5.25 13.7487H8.75C10.3997 13.7487 11.2251 13.7487 11.7372 13.1999C12.25 12.6499 12.25 11.7668 12.25 9.9987V6.2487C12.25 4.4812 12.25 3.59745 11.7372 3.04807C11.4053 2.69182 10.9422 2.56682 10.2083 2.52307V2.81245C10.2083 3.30973 10.024 3.78664 9.69577 4.13827C9.36758 4.4899 8.92246 4.68745 8.45833 4.68745H5.54167C5.07754 4.68745 4.63242 4.4899 4.30423 4.13827C3.97604 3.78664 3.79167 3.30973 3.79167 2.81245V2.52307ZM3.64583 6.56245C3.64583 6.43813 3.69193 6.3189 3.77397 6.23099C3.85602 6.14308 3.9673 6.0937 4.08333 6.0937H9.91667C10.0327 6.0937 10.144 6.14308 10.226 6.23099C10.3081 6.3189 10.3542 6.43813 10.3542 6.56245C10.3542 6.68677 10.3081 6.80599 10.226 6.8939C10.144 6.98181 10.0327 7.0312 9.91667 7.0312H4.08333C3.9673 7.0312 3.85602 6.98181 3.77397 6.8939C3.69193 6.80599 3.64583 6.68677 3.64583 6.56245ZM4.22917 8.74995C4.22917 8.62563 4.27526 8.5064 4.35731 8.41849C4.43935 8.33058 4.55063 8.2812 4.66667 8.2812H9.33333C9.44937 8.2812 9.56065 8.33058 9.64269 8.41849C9.72474 8.5064 9.77083 8.62563 9.77083 8.74995C9.77083 8.87427 9.72474 8.99349 9.64269 9.0814C9.56065 9.16931 9.44937 9.2187 9.33333 9.2187H4.66667C4.55063 9.2187 4.43935 9.16931 4.35731 9.0814C4.27526 8.99349 4.22917 8.87427 4.22917 8.74995ZM4.8125 10.9374C4.8125 10.8131 4.85859 10.6939 4.94064 10.606C5.02269 10.5181 5.13397 10.4687 5.25 10.4687H8.75C8.86603 10.4687 8.97731 10.5181 9.05936 10.606C9.14141 10.6939 9.1875 10.8131 9.1875 10.9374C9.1875 11.0618 9.14141 11.181 9.05936 11.2689C8.97731 11.3568 8.86603 11.4062 8.75 11.4062H5.25C5.13397 11.4062 5.02269 11.3568 4.94064 11.2689C4.85859 11.181 4.8125 11.0618 4.8125 10.9374Z" fill="#D3D3D3"/>
</svg>
