<svg width="13" height="10" viewBox="0 0 13 10" fill="none" xmlns="http://www.w3.org/2000/svg">
<path d="M12.0886 2.11807C12.4511 2.4762 12.6073 2.92745 12.6805 3.46307C12.7505 3.97932 12.7505 4.63557 12.7505 5.44932V5.51495C12.7505 6.3287 12.7505 6.98495 12.6805 7.5012C12.6073 8.03682 12.4511 8.48807 12.0886 8.8462C11.7261 9.20432 11.2698 9.3587 10.7273 9.43057C10.2055 9.49995 9.54109 9.49995 8.71734 9.49995H5.63922C4.81547 9.49995 4.15172 9.49995 3.62922 9.43057C3.08672 9.3587 2.63047 9.20432 2.26797 8.8462C2.05692 8.63567 1.8994 8.37763 1.80859 8.0937C2.35297 8.16057 3.02734 8.16057 3.80547 8.16057H6.93672C7.73734 8.16057 8.42734 8.16057 8.98047 8.08745C9.57234 8.0087 10.1405 7.8312 10.6011 7.3762C11.0611 6.9212 11.2411 6.35995 11.3205 5.77495C11.3955 5.2287 11.3955 4.54682 11.3948 3.75495V3.63745C11.3948 2.8687 11.3948 2.20245 11.3261 1.6637C11.6136 1.75807 11.8686 1.90057 12.0886 2.11807ZM5.37109 2.65495C4.78859 2.65495 4.31672 3.1212 4.31672 3.6962C4.31672 4.2712 4.78859 4.73807 5.37109 4.73807C5.95297 4.73807 6.42484 4.27182 6.42484 3.6962C6.42484 3.1212 5.95297 2.65495 5.37109 2.65495Z" fill="#D3D3D3"/>
<path fill-rule="evenodd" clip-rule="evenodd" d="M0.779375 0.648125C0.25 1.17125 0.25 2.0125 0.25 3.69625C0.25 5.38 0.25 6.22188 0.779375 6.745C1.30875 7.26813 2.16062 7.26813 3.86438 7.26813H6.87687C8.58 7.26813 9.43188 7.26813 9.96125 6.745C10.4906 6.22188 10.4906 5.38 10.4906 3.69625C10.4906 2.01312 10.4906 1.17125 9.96125 0.648125C9.43188 0.125 8.58 0.125 6.87625 0.125H3.86438C2.16062 0.125 1.30812 0.125 0.779375 0.648125ZM3.4125 3.69625C3.4125 2.6275 4.28937 1.76187 5.37063 1.76187C6.45187 1.76187 7.32812 2.62812 7.32812 3.69625C7.32812 4.765 6.45187 5.63125 5.37063 5.63125C4.28937 5.63125 3.4125 4.765 3.4125 3.69625ZM8.68375 5.33375C8.43375 5.33375 8.23187 5.13375 8.23187 4.88688V2.50625C8.23187 2.26 8.43375 2.06 8.68375 2.06C8.80288 2.0595 8.91735 2.10626 9.00206 2.19003C9.08677 2.2738 9.1348 2.38774 9.13562 2.50688V4.88813C9.13463 5.00709 9.08651 5.12081 9.0018 5.20434C8.91709 5.28788 8.80272 5.33442 8.68375 5.33375ZM1.60563 4.88688C1.60563 5.13375 1.8075 5.33313 2.0575 5.33313C2.30688 5.33313 2.50875 5.13313 2.50875 4.88688V2.50625C2.50792 2.38729 2.45996 2.2735 2.37537 2.18985C2.29078 2.1062 2.17647 2.0595 2.0575 2.06C1.8075 2.06 1.60563 2.26 1.60563 2.50688V4.88813V4.88688Z" fill="#D3D3D3"/>
</svg>
