<svg width="34" height="33" viewBox="0 0 34 33" fill="none" xmlns="http://www.w3.org/2000/svg">
<path d="M23.375 12.5H10.625M22.1247 14.375L21.7797 19.55C21.647 21.5405 21.581 22.5358 20.9322 23.1425C20.2835 23.75 19.2852 23.75 17.2902 23.75H16.7097C14.7147 23.75 13.7165 23.75 13.0677 23.1425C12.419 22.5358 12.3522 21.5405 12.2202 19.55L11.8752 14.375" stroke="white" stroke-linecap="round"/>
<path d="M12.875 12.5H12.9575C13.2593 12.4923 13.5518 12.3937 13.7967 12.217C14.0416 12.0404 14.2274 11.794 14.33 11.51L14.3555 11.4328L14.4282 11.2145C14.4905 11.0277 14.522 10.9347 14.5633 10.8552C14.6444 10.6995 14.7609 10.565 14.9034 10.4624C15.0458 10.3597 15.2104 10.2919 15.3838 10.2643C15.4715 10.25 15.5697 10.25 15.7662 10.25H18.2337C18.4302 10.25 18.5285 10.25 18.6162 10.2643C18.7896 10.2919 18.9542 10.3597 19.0966 10.4624C19.2391 10.565 19.3556 10.6995 19.4367 10.8552C19.478 10.9347 19.5095 11.0277 19.5717 11.2145L19.6445 11.4328C19.7395 11.7487 19.9361 12.0245 20.2038 12.2174C20.4714 12.4104 20.7952 12.5097 21.125 12.5" stroke="white"/>
<path d="M15.2581 16.1L18.8002 19.6969M18.7423 16.1031L15.2002 19.7" stroke="white" stroke-width="0.7" stroke-linecap="round"/>
<rect x="0.5" y="0.5" width="33" height="32" rx="9.5" stroke="white"/>
</svg>
