<svg width="16" height="16" viewBox="0 0 16 16" fill="none" xmlns="http://www.w3.org/2000/svg">
<rect width="16" height="16" rx="4" fill="#7CE2B8"/>
<g clip-path="url(#clip0_974_1110)">
<path d="M5.5002 3.59985C5.57976 3.59985 5.65607 3.63146 5.71233 3.68772C5.76859 3.74398 5.8002 3.82029 5.8002 3.89985V4.63985L6.4882 4.50225C7.1485 4.37014 7.83297 4.43296 8.4582 4.68305L8.6234 4.74905C9.19336 4.97703 9.82067 5.01958 10.4162 4.87065C10.4722 4.85663 10.5312 4.85955 10.5856 4.87903C10.6399 4.89852 10.6873 4.93369 10.7217 4.98011C10.7561 5.02653 10.7759 5.0821 10.7787 5.1398C10.7815 5.1975 10.7671 5.25473 10.7374 5.30425L10.2262 6.15665C10.0894 6.38465 10.021 6.49825 10.005 6.62185C9.9982 6.67385 9.9982 6.72585 10.005 6.77785C10.021 6.90145 10.0894 7.01545 10.2262 7.24305L10.8502 8.28305C10.8791 8.33127 10.8963 8.38558 10.9005 8.44165C10.9047 8.49772 10.8956 8.55399 10.8741 8.60594C10.8526 8.65788 10.8192 8.70407 10.7767 8.74081C10.7341 8.77754 10.6835 8.80379 10.629 8.81745L10.589 8.82745C9.88121 9.00447 9.13563 8.95395 8.4582 8.68305C7.8331 8.43301 7.14877 8.37019 6.4886 8.50225L5.8002 8.63985V11.8999C5.8002 11.9794 5.76859 12.0557 5.71233 12.112C5.65607 12.1682 5.57976 12.1999 5.5002 12.1999C5.42063 12.1999 5.34432 12.1682 5.28806 12.112C5.2318 12.0557 5.2002 11.9794 5.2002 11.8999V3.89985C5.2002 3.82029 5.2318 3.74398 5.28806 3.68772C5.34432 3.63146 5.42063 3.59985 5.5002 3.59985Z" fill="#F6F6F6"/>
</g>
<defs>
<clipPath id="clip0_974_1110">
<rect width="9.6" height="9.6" fill="white" transform="translate(3.2002 3.19995)"/>
</clipPath>
</defs>
</svg>
