<svg width="16" height="16" viewBox="0 0 16 16" fill="none" xmlns="http://www.w3.org/2000/svg">
<rect width="16" height="16" rx="4" fill="#7CE2B8"/>
<path fill-rule="evenodd" clip-rule="evenodd" d="M8.00029 4C6.23309 4 4.80029 5.6012 4.80029 7.4C4.80029 9.1848 5.82149 11.1248 7.41509 11.8696C7.59826 11.9554 7.79804 11.9998 8.00029 11.9998C8.20255 11.9998 8.40233 11.9554 8.58549 11.8696C10.1791 11.1248 11.2003 9.1848 11.2003 7.4C11.2003 5.6012 9.76749 4 8.00029 4ZM8.00029 8C8.21247 8 8.41595 7.91571 8.56598 7.76569C8.71601 7.61566 8.80029 7.41217 8.80029 7.2C8.80029 6.98783 8.71601 6.78434 8.56598 6.63432C8.41595 6.48429 8.21247 6.4 8.00029 6.4C7.78812 6.4 7.58464 6.48429 7.43461 6.63432C7.28458 6.78434 7.20029 6.98783 7.20029 7.2C7.20029 7.41217 7.28458 7.61566 7.43461 7.76569C7.58464 7.91571 7.78812 8 8.00029 8Z" fill="#F6F6F6"/>
</svg>
