<svg width="19" height="22" viewBox="0 0 19 22" fill="none" xmlns="http://www.w3.org/2000/svg">
<path fill-rule="evenodd" clip-rule="evenodd" d="M12.3333 0.17111C13.6453 0.61211 14.5003 1.84711 14.5003 3.46611C14.5003 4.48311 13.9223 5.42011 13.2773 6.16611C12.6143 6.93511 11.7763 7.62411 11.0423 8.15911L10.9493 8.22711C10.2373 8.74711 9.64927 9.17711 8.75027 9.17711C7.85027 9.17711 7.26427 8.74711 6.55227 8.22711L6.45827 8.15911C5.72427 7.62411 4.88627 6.93511 4.22327 6.16711C3.58027 5.42011 3.00027 4.48311 3.00027 3.46611C3.00027 1.84711 3.85527 0.61311 5.16727 0.17111C6.28727 -0.20589 7.58927 0.0431105 8.75027 0.888111C9.91127 0.0431105 11.2143 -0.20589 12.3333 0.17111ZM11.8553 1.59311C11.2033 1.37311 10.2303 1.51511 9.25827 2.40911C9.11986 2.53631 8.93874 2.60689 8.75077 2.60689C8.56279 2.60689 8.38167 2.53631 8.24327 2.40911C7.27027 1.51511 6.29827 1.37311 5.64627 1.59311C5.02027 1.80311 4.50027 2.40711 4.50027 3.46611C4.50027 3.93311 4.78527 4.52111 5.35927 5.18711C5.91527 5.83211 6.65127 6.44411 7.34227 6.94711C8.18527 7.56211 8.38527 7.67711 8.75027 7.67711C9.11527 7.67711 9.31527 7.56211 10.1593 6.94711C10.8493 6.44411 11.5853 5.83211 12.1413 5.18711C12.7163 4.52111 13.0013 3.93311 13.0013 3.46611C13.0013 2.40611 12.4803 1.80311 11.8553 1.59311ZM5.43427 13.1991C7.30027 12.8371 9.29727 12.9191 10.9143 13.8831C11.1403 14.0181 11.3543 14.1871 11.5393 14.3951C11.9153 14.8171 12.1093 15.3421 12.1183 15.8681C12.3093 15.7451 12.5013 15.6081 12.6953 15.4611L14.5033 14.0961C14.9559 13.7635 15.503 13.5841 16.0648 13.5841C16.6265 13.5841 17.1736 13.7635 17.6263 14.0961C18.4623 14.7261 18.7963 15.8591 18.1973 16.8181C17.7723 17.5001 17.1313 18.4431 16.4803 19.0471C15.8203 19.6571 14.8833 20.1701 14.1743 20.5131C13.3123 20.9291 12.3823 21.1581 11.4773 21.3051C9.62727 21.6051 7.70327 21.5581 5.87527 21.1821C4.93259 20.9881 3.9727 20.8899 3.01027 20.8891H0.750267C0.551354 20.8891 0.360589 20.8101 0.219937 20.6694C0.0792843 20.5288 0.000266718 20.338 0.000266718 20.1391C0.000266718 19.9402 0.0792843 19.7494 0.219937 19.6088C0.360589 19.4681 0.551354 19.3891 0.750267 19.3891H3.01027C4.07227 19.3891 5.14527 19.4991 6.17827 19.7131C7.84443 20.055 9.55871 20.0926 11.2383 19.8241C12.0663 19.6901 12.8403 19.4911 13.5223 19.1621C14.2053 18.8321 14.9733 18.3981 15.4603 17.9461C15.9533 17.4901 16.5043 16.6991 16.9253 16.0251C17.0523 15.8211 17.0343 15.5271 16.7233 15.2921C16.5308 15.1561 16.3009 15.083 16.0653 15.083C15.8296 15.083 15.5997 15.1561 15.4073 15.2921L13.6003 16.6581C12.8783 17.2031 11.9903 17.7861 10.8893 17.9611C10.7739 17.9798 10.6583 17.9961 10.5423 18.0101C9.84159 18.0909 9.13435 18.0977 8.43227 18.0301C8.33247 18.0232 8.23505 17.9964 8.14577 17.9513C8.05648 17.9062 7.97711 17.8437 7.91235 17.7674C7.84759 17.6912 7.79873 17.6028 7.76866 17.5073C7.73859 17.4119 7.72791 17.3115 7.73725 17.2119C7.74658 17.1123 7.77576 17.0155 7.82304 16.9274C7.87033 16.8392 7.93477 16.7614 8.01258 16.6985C8.09039 16.6357 8.17999 16.589 8.27611 16.5613C8.37223 16.5335 8.47292 16.5253 8.57227 16.5371C9.20027 16.5961 9.76227 16.5831 10.2403 16.5341L10.2703 16.5311C10.3636 16.4732 10.4429 16.3953 10.5024 16.3031C10.562 16.2108 10.6003 16.1065 10.6146 15.9976C10.629 15.8887 10.619 15.7781 10.5854 15.6735C10.5518 15.569 10.4954 15.4732 10.4203 15.3931C10.3406 15.3054 10.2478 15.2305 10.1453 15.1711C8.96427 14.4661 7.38627 14.3491 5.71927 14.6711C4.09102 14.9987 2.54744 15.6573 1.18427 16.6061C1.1039 16.6631 1.01309 16.7037 0.917028 16.7256C0.820966 16.7475 0.721532 16.7503 0.624402 16.7337C0.527272 16.7172 0.434348 16.6817 0.350937 16.6293C0.267526 16.5768 0.19526 16.5085 0.138267 16.4281C0.081273 16.3477 0.0406672 16.2569 0.0187678 16.1609C-0.00313167 16.0648 -0.00589591 15.9654 0.0106329 15.8682C0.0271617 15.7711 0.0626601 15.6782 0.115101 15.5948C0.167542 15.5114 0.235898 15.4391 0.316267 15.3821C1.85391 14.3101 3.59625 13.5669 5.43427 13.1991Z" fill="white"/>
</svg>
