<svg width="17" height="23" viewBox="0 0 17 23" fill="none" xmlns="http://www.w3.org/2000/svg">
<path d="M8.44024 17.0002C12.5822 17.0342 16.0342 13.0802 16.0002 8.80425C15.9672 4.53025 12.5822 1.03425 8.44024 1.00025C4.29824 0.96625 0.967243 4.40425 1.00024 8.68025C1.03424 12.9553 4.29824 16.9652 8.44024 17.0002Z" stroke="white" stroke-width="1.5" stroke-linecap="round"/>
<path d="M11.9403 8.00049C11.9313 7.20766 11.6123 6.44987 11.0516 5.88922C10.491 5.32857 9.73318 5.00958 8.94035 5.00049M8.44035 19.3505C8.76135 19.3505 8.92235 19.3505 9.03335 19.3285C9.68735 19.2005 10.0843 18.5565 9.89135 17.9385C9.85835 17.8335 9.78235 17.6965 9.63035 17.4235M8.44035 19.3505C8.11935 19.3505 7.95835 19.3505 7.84735 19.3285C7.19335 19.2005 6.79635 18.5565 6.98935 17.9385C7.02235 17.8335 7.09835 17.6965 7.25035 17.4235M8.44035 19.3505V21.5005" stroke="white" stroke-width="1.5" stroke-linecap="round"/>
</svg>
