<svg width="18" height="22" viewBox="0 0 18 22" fill="none" xmlns="http://www.w3.org/2000/svg">
<path d="M3 2.5C3 2.034 3 1.801 3.076 1.617C3.17771 1.37246 3.37227 1.17826 3.617 1.077C3.801 1 4.034 1 4.5 1H13.5C13.966 1 14.199 1 14.383 1.076C14.6275 1.17771 14.8217 1.37227 14.923 1.617C15 1.801 15 2.034 15 2.5C15 2.966 15 3.199 14.924 3.383C14.8223 3.62754 14.6277 3.82174 14.383 3.923C14.199 4 13.966 4 13.5 4H4.5C4.034 4 3.801 4 3.617 3.924C3.37246 3.82229 3.17826 3.62773 3.077 3.383C3 3.199 3 2.966 3 2.5Z" stroke="white" stroke-width="1.5"/>
<path d="M1.5 17H16.5M1.5 9H16.5M9 11V15M7 13H11M2.501 6.799L4.904 4.877C5.447 4.443 5.718 4.225 6.04 4.113C6.36 4 6.708 4 7.403 4H10.643C11.343 4 11.694 4 12.018 4.115C12.342 4.229 12.615 4.45 13.16 4.891L15.517 6.799C15.9804 7.17422 16.3541 7.64832 16.6107 8.18659C16.8673 8.72486 17.0003 9.3137 17 9.91V16.566C17.0001 17.4938 16.6777 18.3928 16.088 19.109L15.729 19.544C15.3537 19.9994 14.8823 20.3661 14.3486 20.6178C13.8149 20.8695 13.2321 21 12.642 21H5.957C5.386 21 5.1 21 4.83 20.963C4.02676 20.853 3.27593 20.5014 2.677 19.955C2.476 19.771 2.293 19.551 1.927 19.113C1.32793 18.3941 0.999906 17.4878 1 16.552V9.922C1.00019 9.32239 1.13519 8.73049 1.39501 8.19009C1.65482 7.64968 2.03281 7.17461 2.501 6.8V6.799Z" stroke="white" stroke-width="1.5" stroke-linecap="round"/>
</svg>
