<svg width="22" height="22" viewBox="0 0 22 22" fill="none" xmlns="http://www.w3.org/2000/svg">
<path d="M2.172 19.828C3.343 21 5.229 21 9 21C12.771 21 14.657 21 15.828 19.828C17 18.657 17 16.771 17 13C16.9995 12.4925 16.8989 11.99 16.704 11.5214C16.509 11.0528 16.2236 10.6272 15.864 10.269L11.731 6.136C11.3727 5.77657 10.9471 5.49126 10.4785 5.29634C10.0099 5.10142 9.50751 5.00072 9 5C5.229 5 3.343 5 2.172 6.172C1 7.343 1 9.229 1 13C1 16.771 1 18.657 2.172 19.828Z" stroke="white" stroke-width="1.5"/>
<path d="M17.0001 16.898C18.3001 16.771 19.175 16.482 19.828 15.828C21 14.657 21.0001 12.771 21.0001 9C20.9995 8.49245 20.8989 7.98999 20.704 7.52137C20.5091 7.05275 20.2237 6.62717 19.8641 6.269L15.7311 2.136C15.3729 1.77665 14.9475 1.49137 14.479 1.29645C14.0106 1.10154 13.5084 1.0008 13.0011 1C9.22905 1 7.34305 1 6.17105 2.172C5.51905 2.825 5.23005 3.7 5.10205 5M9.00005 13H8.00005C7.05705 13 6.58605 13 6.29305 13.293C6.00005 13.586 6.00005 14.057 6.00005 15V16C6.00005 16.943 6.00005 17.414 6.29305 17.707C6.58605 18 7.05705 18 8.00005 18H9.00005M9.00005 13H10.0001C10.9431 13 11.4141 13 11.7071 13.293C12.0001 13.586 12.0001 14.057 12.0001 15V15.5M9.00005 13V15.5M9.00005 18H10.0001C10.9431 18 11.4141 18 11.7071 17.707C12.0001 17.414 12.0001 16.943 12.0001 16V15.5M9.00005 18V15.5M12.0001 15.5H9.00005" stroke="white" stroke-width="1.5"/>
</svg>
