<svg width="22" height="20" viewBox="0 0 22 20" fill="none" xmlns="http://www.w3.org/2000/svg">
<path d="M8.783 1.49947C9.47581 1.17061 10.2331 1 11 1C11.7669 1 12.5242 1.17061 13.217 1.49947L19.908 4.63647C21.364 5.31847 21.364 7.68047 19.908 8.36247L13.218 11.4995C12.5251 11.8285 11.7676 11.9992 11.0005 11.9992C10.2334 11.9992 9.47594 11.8285 8.783 11.4995L2.092 8.36247C0.636 7.68047 0.636 5.31847 2.092 4.63647L8.782 1.49947H8.783Z" stroke="white" stroke-width="1.5"/>
<path d="M1 6.49951V11.9995M18 9.49951V14.6245C18 15.6325 17.497 16.5765 16.615 17.0645C15.146 17.8795 12.796 18.9995 11 18.9995C9.204 18.9995 6.854 17.8785 5.385 17.0655C4.504 16.5765 4 15.6325 4 14.6255V9.49951" stroke="white" stroke-width="1.5" stroke-linecap="round"/>
</svg>
