<svg width="15" height="15" viewBox="0 0 15 15" fill="none" xmlns="http://www.w3.org/2000/svg">
<path fill-rule="evenodd" clip-rule="evenodd" d="M4.56655 0.78125C4.06593 0.78125 3.7228 0.78125 3.41655 0.864375C3.09959 0.951364 2.80448 1.10404 2.55036 1.3125C2.29625 1.52096 2.08882 1.78054 1.94155 2.07437C1.79968 2.35687 1.7328 2.69375 1.63468 3.185L1.24718 5.12125C1.17855 5.46068 1.18518 5.81102 1.2666 6.14761C1.34802 6.4842 1.50225 6.79884 1.71843 7.06937V8.785C1.71843 9.93375 1.71843 10.8437 1.81405 11.5556C1.9128 12.2881 2.1203 12.8812 2.5878 13.3494C3.0553 13.8169 3.64843 14.0244 4.38155 14.1231C5.09343 14.2187 6.00343 14.2187 7.15155 14.2187H7.84717C8.99592 14.2187 9.90592 14.2187 10.6178 14.1231C11.3503 14.0244 11.9434 13.8169 12.4115 13.3494C12.879 12.8812 13.0865 12.2881 13.1853 11.5556C13.2809 10.8431 13.2809 9.93375 13.2809 8.785V7.07C13.4971 6.79934 13.6512 6.48457 13.7326 6.14787C13.8139 5.81117 13.8204 5.46073 13.7515 5.12125L13.364 3.185C13.2665 2.69375 13.199 2.35687 13.0578 2.07437C12.9105 1.78047 12.7029 1.52086 12.4487 1.31239C12.1945 1.10393 11.8992 0.951286 11.5822 0.864375C11.2765 0.78125 10.9334 0.78125 10.4322 0.78125H4.56655ZM11.4172 7.96875C11.7353 7.96932 12.0503 7.90599 12.3434 7.7825V8.75C12.3434 9.94187 12.3422 10.7887 12.2559 11.4312C12.1715 12.0594 12.0128 12.4219 11.7484 12.6862C11.484 12.9506 11.1215 13.1094 10.4922 13.1937C10.1731 13.2333 9.85232 13.2571 9.53092 13.265V11.5425C9.53092 11.2675 9.53092 11.03 9.51342 10.8362C9.49467 10.63 9.45342 10.4262 9.34217 10.2344C9.21889 10.0205 9.04148 9.84292 8.8278 9.71937C8.63592 9.60875 8.43217 9.5675 8.22592 9.54875C8.03217 9.53125 7.79467 9.53125 7.51967 9.53125H7.47905C7.20405 9.53125 6.96718 9.53125 6.7728 9.54875C6.56655 9.5675 6.36342 9.60875 6.17155 9.71937C5.95764 9.84284 5.78001 10.0205 5.65655 10.2344C5.54592 10.4262 5.50467 10.63 5.48592 10.8356C5.46842 11.0306 5.46842 11.2675 5.46842 11.5419V13.265C5.14661 13.2572 4.82539 13.2334 4.50592 13.1937C3.8778 13.1094 3.5153 12.9506 3.25093 12.6862C2.98593 12.4219 2.8278 12.0594 2.74343 11.4306C2.65655 10.7887 2.65593 9.94187 2.65593 8.75V7.7825C3.15537 7.99351 3.7119 8.02762 4.23337 7.87918C4.75484 7.73074 5.20998 7.40865 5.52343 6.96625C5.75047 7.27732 6.04786 7.53029 6.39132 7.70452C6.73477 7.87874 7.11456 7.96928 7.49967 7.96875C7.88479 7.96928 8.26458 7.87874 8.60803 7.70452C8.95149 7.53029 9.24887 7.27732 9.47592 6.96625C9.69589 7.27626 9.98693 7.52907 10.3247 7.70349C10.6624 7.8779 11.037 7.96886 11.4172 7.96875ZM6.40592 13.28C6.64843 13.2812 6.90842 13.2812 7.18717 13.2812H7.81217C8.09092 13.2812 8.3503 13.2812 8.59342 13.28V11.5625C8.59342 11.2619 8.5928 11.0675 8.57967 10.9206C8.56717 10.78 8.5453 10.7287 8.5303 10.7031C8.4892 10.632 8.43015 10.573 8.35905 10.5319C8.33343 10.5169 8.28218 10.4956 8.14155 10.4825C7.92786 10.4693 7.71373 10.4648 7.49967 10.4687C7.19905 10.4687 7.00467 10.4687 6.8578 10.4825C6.71655 10.495 6.66593 10.5169 6.6403 10.5319C6.56897 10.5729 6.50969 10.6319 6.46843 10.7031C6.45405 10.7281 6.43218 10.78 6.41968 10.9206C6.40655 11.0675 6.40592 11.2619 6.40592 11.5625V13.28ZM5.41843 1.71875H4.63593C4.03967 1.71875 3.8328 1.72312 3.6653 1.76875C3.47516 1.8209 3.29811 1.91245 3.14565 2.03746C2.99318 2.16247 2.8687 2.31814 2.7803 2.49437C2.70218 2.65 2.6578 2.85125 2.54093 3.43625L2.16718 5.305C2.12734 5.49728 2.12715 5.69566 2.16661 5.88801C2.20607 6.08037 2.28436 6.26265 2.39668 6.42372C2.509 6.58478 2.65299 6.72124 2.81985 6.82475C2.98672 6.92826 3.17294 6.99664 3.36714 7.02571C3.56133 7.05479 3.75942 7.04394 3.94928 6.99384C4.13914 6.94374 4.31679 6.85543 4.47135 6.73433C4.62592 6.61322 4.75415 6.46185 4.84822 6.28949C4.94228 6.11713 5.0002 5.92739 5.01842 5.73187L5.06155 5.30312L5.06405 5.27687L5.41967 1.71875H5.41843ZM5.99405 5.39062L6.36155 1.71875H8.6378L9.0028 5.37C9.02325 5.57892 8.99994 5.78981 8.93435 5.98922C8.86876 6.18862 8.76232 6.37217 8.62184 6.52815C8.48136 6.68413 8.3099 6.80912 8.11842 6.89515C7.92694 6.98117 7.71963 7.02634 7.50972 7.02778C7.29981 7.02922 7.0919 6.9869 6.89925 6.9035C6.70661 6.82011 6.53346 6.69748 6.39085 6.54344C6.24824 6.3894 6.1393 6.20733 6.07098 6.00884C6.00266 5.81035 5.97646 5.5998 5.99405 5.39062ZM11.334 1.76875C11.1665 1.72312 10.9597 1.71875 10.3634 1.71875H9.57967L9.98155 5.73125C10.0004 5.9262 10.0587 6.11528 10.1529 6.28697C10.2471 6.45867 10.3753 6.60938 10.5297 6.72994C10.684 6.8505 10.8613 6.93837 11.0507 6.98822C11.2401 7.03806 11.4377 7.04883 11.6314 7.01987C11.8251 6.9909 12.0109 6.92281 12.1774 6.81974C12.344 6.71667 12.4878 6.58078 12.6001 6.42035C12.7125 6.25991 12.791 6.07829 12.8309 5.88654C12.8708 5.69479 12.8712 5.49693 12.8322 5.305L12.459 3.43625C12.3415 2.85125 12.2972 2.65 12.2197 2.49437C12.1312 2.31808 12.0066 2.16236 11.8541 2.03735C11.7015 1.91234 11.5243 1.82082 11.334 1.76875Z" fill="#DEB360"/>
</svg>
