<svg width="26" height="26" viewBox="0 0 26 26" fill="none" xmlns="http://www.w3.org/2000/svg">
<path d="M12.0708 21.6667C9.65824 21.6667 8.45141 21.6667 7.44499 21.1239C6.43749 20.5801 5.79833 19.5856 4.51891 17.5933L3.78116 16.445C2.70541 14.7702 2.16699 13.9317 2.16699 13C2.16699 12.0683 2.70541 11.2298 3.78116 9.555L4.51783 8.40667C5.79724 6.4155 6.43641 5.41992 7.44391 4.87608C8.45141 4.33333 9.65824 4.33333 12.0708 4.33333H14.9276C19.1255 4.33333 21.225 4.33333 22.5293 5.603C23.8337 6.87158 23.8337 8.91475 23.8337 13C23.8337 17.0852 23.8337 19.1284 22.5293 20.397C21.225 21.6667 19.1255 21.6667 14.9287 21.6667H12.0708Z" stroke="#1B1B1B" stroke-width="1.5"/>
<path d="M16.7917 10.2917L11.375 15.7083M11.375 10.2917L16.7917 15.7083" stroke="#1B1B1B" stroke-width="1.5" stroke-linecap="round"/>
</svg>
