<svg width="43" height="43" viewBox="0 0 43 43" fill="none" xmlns="http://www.w3.org/2000/svg">
<rect width="43" height="43" rx="12" fill="#1B1B1B"/>
<path d="M29.8332 21.5C29.8332 18.3575 29.8332 16.7858 28.8565 15.81C27.8807 14.8333 26.309 14.8333 23.1665 14.8333H19.8332C16.6907 14.8333 15.119 14.8333 14.1432 15.81C13.1665 16.7858 13.1665 18.3575 13.1665 21.5C13.1665 24.6425 13.1665 26.2141 14.1432 27.19C15.119 28.1666 16.6907 28.1666 19.8332 28.1666H23.1665M19.8332 24.8333H16.4998M22.3332 24.8333H21.9165M13.1665 19.8333H29.8332" stroke="#F6F6F6" stroke-linecap="round"/>
<path d="M24.8335 25.25L29.8335 25.25" stroke="#F6F6F6" stroke-linecap="round"/>
<path d="M27.3447 27.7245L27.3447 22.7286" stroke="#F6F6F6" stroke-linecap="round"/>
</svg>
