<svg width="125" height="43" viewBox="0 0 125 43" fill="none" xmlns="http://www.w3.org/2000/svg">
<path d="M0 19.2C0 12.4794 0 9.11905 1.30792 6.55211C2.4584 4.29417 4.29417 2.4584 6.55211 1.30792C9.11905 0 12.4794 0 19.2 0H105.8C112.521 0 115.881 0 118.448 1.30792C120.706 2.4584 122.542 4.29417 123.692 6.55211C125 9.11905 125 12.4794 125 19.2V23.8C125 30.5206 125 33.8809 123.692 36.4479C122.542 38.7058 120.706 40.5416 118.448 41.6921C115.881 43 112.521 43 105.8 43H19.2C12.4794 43 9.11905 43 6.55211 41.6921C4.29417 40.5416 2.4584 38.7058 1.30792 36.4479C0 33.8809 0 30.5206 0 23.8V19.2Z" fill="#7CE2B8"/>
</svg>
