<svg width="21" height="21" viewBox="0 0 21 21" fill="none" xmlns="http://www.w3.org/2000/svg">
<path d="M18.6793 2.31967C17.2753 0.916672 15.0165 0.916672 10.4989 0.916672C5.98135 0.916672 3.72448 0.916672 2.31956 2.31967C1.59315 3.04609 1.24336 4.00059 1.07373 5.37867C1.58519 4.80911 2.19724 4.33869 2.87923 3.991C3.62865 3.60959 4.43077 3.45434 5.31819 3.38246C6.1759 3.3125 7.23198 3.3125 8.5219 3.3125H12.476C13.7669 3.3125 14.822 3.3125 15.6797 3.38246C16.5681 3.4553 17.3702 3.60959 18.1186 3.991C18.8006 4.33867 19.4127 4.80909 19.9241 5.37867C19.7555 4.00059 19.4057 3.04609 18.6793 2.31967Z" fill="#7CE2B8"/>
<path fill-rule="evenodd" clip-rule="evenodd" d="M0.916504 12.4167C0.916504 9.73333 0.916504 8.39167 1.4388 7.36625C1.89818 6.46468 2.63118 5.73168 3.53275 5.27229C4.55817 4.75 5.89984 4.75 8.58317 4.75H12.4165C15.0998 4.75 16.4415 4.75 17.4669 5.27229C18.3685 5.73168 19.1015 6.46468 19.5609 7.36625C20.0832 8.39167 20.0832 9.73333 20.0832 12.4167C20.0832 15.1 20.0832 16.4417 19.5609 17.4671C19.1015 18.3687 18.3685 19.1017 17.4669 19.561C16.4415 20.0833 15.0998 20.0833 12.4165 20.0833H8.58317C5.89984 20.0833 4.55817 20.0833 3.53275 19.561C2.63118 19.1017 1.89818 18.3687 1.4388 17.4671C0.916504 16.4417 0.916504 15.1 0.916504 12.4167ZM11.0078 15.7996C10.873 15.9342 10.6903 16.0098 10.4998 16.0098C10.3094 16.0098 10.1267 15.9342 9.99192 15.7996L7.59609 13.4037C7.52547 13.3379 7.46883 13.2586 7.42955 13.1704C7.39026 13.0823 7.36914 12.9871 7.36744 12.8906C7.36573 12.7941 7.38349 12.6982 7.41964 12.6087C7.45579 12.5192 7.50959 12.4379 7.57784 12.3697C7.64609 12.3014 7.72739 12.2476 7.81689 12.2115C7.90639 12.1753 8.00225 12.1576 8.09875 12.1593C8.19526 12.161 8.29044 12.1821 8.3786 12.2214C8.46677 12.2607 8.54612 12.3173 8.61192 12.3879L9.78109 13.5571V9.54167C9.78109 9.35104 9.85681 9.16823 9.9916 9.03343C10.1264 8.89864 10.3092 8.82292 10.4998 8.82292C10.6905 8.82292 10.8733 8.89864 11.0081 9.03343C11.1429 9.16823 11.2186 9.35104 11.2186 9.54167V13.5571L12.3878 12.3879C12.4536 12.3173 12.5329 12.2607 12.6211 12.2214C12.7092 12.1821 12.8044 12.161 12.9009 12.1593C12.9974 12.1576 13.0933 12.1753 13.1828 12.2115C13.2723 12.2476 13.3536 12.3014 13.4218 12.3697C13.4901 12.4379 13.5439 12.5192 13.58 12.6087C13.6162 12.6982 13.6339 12.7941 13.6322 12.8906C13.6305 12.9871 13.6094 13.0823 13.5701 13.1704C13.5308 13.2586 13.4742 13.3379 13.4036 13.4037L11.0078 15.7996Z" fill="#7CE2B8"/>
</svg>
