<svg width="21" height="21" viewBox="0 0 21 21" fill="none" xmlns="http://www.w3.org/2000/svg">
<path d="M18.6793 2.31967C17.2753 0.916672 15.0165 0.916672 10.4989 0.916672C5.98135 0.916672 3.72448 0.916672 2.31956 2.31967C1.59315 3.04609 1.24336 4.00059 1.07373 5.37867C1.58519 4.80911 2.19724 4.33869 2.87923 3.99101C3.62865 3.60959 4.43077 3.45434 5.31819 3.38246C6.1759 3.31251 7.23198 3.31251 8.5219 3.31251H12.476C13.7669 3.31251 14.822 3.31251 15.6797 3.38246C16.5681 3.4553 17.3702 3.60959 18.1186 3.99101C18.8006 4.33867 19.4127 4.80909 19.9241 5.37867C19.7555 4.00059 19.4057 3.04609 18.6793 2.31967Z" fill="#7CE2B8"/>
<path fill-rule="evenodd" clip-rule="evenodd" d="M0.916504 12.4167C0.916504 9.73333 0.916504 8.39167 1.4388 7.36625C1.89818 6.46468 2.63118 5.73168 3.53275 5.27229C4.55817 4.75 5.89984 4.75 8.58317 4.75H12.4165C15.0998 4.75 16.4415 4.75 17.4669 5.27229C18.3685 5.73168 19.1015 6.46468 19.5609 7.36625C20.0832 8.39167 20.0832 9.73333 20.0832 12.4167C20.0832 15.1 20.0832 16.4417 19.5609 17.4671C19.1015 18.3687 18.3685 19.1017 17.4669 19.561C16.4415 20.0833 15.0998 20.0833 12.4165 20.0833H8.58317C5.89984 20.0833 4.55817 20.0833 3.53275 19.561C2.63118 19.1017 1.89818 18.3687 1.4388 17.4671C0.916504 16.4417 0.916504 15.1 0.916504 12.4167ZM11.0078 9.03375C10.873 8.89915 10.6903 8.82355 10.4998 8.82355C10.3094 8.82355 10.1267 8.89915 9.99192 9.03375L7.59609 11.4296C7.52547 11.4954 7.46883 11.5747 7.42955 11.6629C7.39026 11.7511 7.36914 11.8462 7.36744 11.9427C7.36573 12.0393 7.38349 12.1351 7.41964 12.2246C7.45578 12.3141 7.50959 12.3954 7.57784 12.4637C7.64609 12.5319 7.72739 12.5857 7.81689 12.6219C7.90639 12.658 8.00225 12.6758 8.09875 12.6741C8.19526 12.6724 8.29044 12.6512 8.3786 12.612C8.46677 12.5727 8.54612 12.516 8.61192 12.4454L9.78109 11.2762V15.2917C9.78109 15.4823 9.85681 15.6651 9.9916 15.7999C10.1264 15.9347 10.3092 16.0104 10.4998 16.0104C10.6905 16.0104 10.8733 15.9347 11.0081 15.7999C11.1429 15.6651 11.2186 15.4823 11.2186 15.2917V11.2762L12.3878 12.4454C12.4536 12.516 12.5329 12.5727 12.6211 12.612C12.7092 12.6512 12.8044 12.6724 12.9009 12.6741C12.9974 12.6758 13.0933 12.658 13.1828 12.6219C13.2723 12.5857 13.3536 12.5319 13.4218 12.4637C13.4901 12.3954 13.5439 12.3141 13.58 12.2246C13.6162 12.1351 13.6339 12.0393 13.6322 11.9427C13.6305 11.8462 13.6094 11.7511 13.5701 11.6629C13.5308 11.5747 13.4742 11.4954 13.4036 11.4296L11.0078 9.03375Z" fill="#7CE2B8"/>
</svg>
