<svg width="22" height="22" viewBox="0 0 22 22" fill="none" xmlns="http://www.w3.org/2000/svg">
<path d="M19.1667 0.5H2.83333C1.53833 0.5 0.5 1.53833 0.5 2.83333V19.1667C0.5 19.7855 0.745833 20.379 1.18342 20.8166C1.621 21.2542 2.21449 21.5 2.83333 21.5H19.1667C20.4617 21.5 21.5 20.4617 21.5 19.1667V2.83333C21.5 2.21449 21.2542 1.621 20.8166 1.18342C20.379 0.745833 19.7855 0.5 19.1667 0.5ZM7.30167 5.225C8.445 5.225 9.36667 6.14667 9.36667 7.30167C9.36667 8.445 8.445 9.36667 7.30167 9.36667C6.14667 9.36667 5.225 8.445 5.225 7.30167C5.225 6.14667 6.14667 5.225 7.30167 5.225ZM14.7567 16.8333C13.6133 16.8333 12.6917 15.9 12.6917 14.7567C12.6917 13.6133 13.6133 12.6917 14.7567 12.6917C15.9 12.6917 16.8333 13.6133 16.8333 14.7567C16.8333 15.9 15.9 16.8333 14.7567 16.8333ZM6.91667 16.8683L5.16667 15.1183L15.1183 5.16667L16.8683 6.91667L6.91667 16.8683Z" fill="#5EDEA9"/>
</svg>
