<svg width="21" height="21" viewBox="0 0 21 21" fill="none" xmlns="http://www.w3.org/2000/svg">
<path d="M3.31971 13.0988C3.78959 15.4499 4.02496 16.625 4.80109 17.3819C4.94459 17.5219 5.10034 17.6487 5.26484 17.7616C6.15996 18.375 7.35871 18.375 9.75621 18.375H11.2463C13.643 18.375 14.8408 18.375 15.7351 17.7625C15.9013 17.6487 16.0562 17.521 16.1988 17.3819C16.9758 16.625 17.2112 15.4499 17.6811 13.0996C18.3557 9.72562 18.6935 8.03863 17.9165 6.84338C17.7757 6.62669 17.6114 6.42626 17.4265 6.24575C16.4062 5.25 14.6868 5.25 11.2463 5.25H9.75621C6.31396 5.25 4.59371 5.25 3.57346 6.24575C3.38888 6.42631 3.22484 6.62673 3.08434 6.84338C2.30734 8.03863 2.64509 9.72562 3.32059 13.0996L3.31971 13.0988Z" stroke="#5EDEA9" stroke-width="0.8"/>
<path d="M7.875 5.25V4.375C7.875 3.67881 8.15156 3.01113 8.64384 2.51884C9.13613 2.02656 9.80381 1.75 10.5 1.75C11.1962 1.75 11.8639 2.02656 12.3562 2.51884C12.8484 3.01113 13.125 3.67881 13.125 4.375V5.25" stroke="#5EDEA9" stroke-width="0.8" stroke-linecap="round"/>
<path d="M8.75 11.9314L12.25 11.9314" stroke="#5EDEA9" stroke-width="0.8" stroke-linecap="round"/>
</svg>
