<svg width="91" height="38" viewBox="0 0 91 38" fill="none" xmlns="http://www.w3.org/2000/svg">
<rect x="0.5" y="0.5" width="90" height="37" rx="7.5" fill="#F6F6F6"/>
<path d="M26.4766 12.6406V11.0391H27.8516V12.6562C28.7786 12.776 29.5339 13.1094 30.1172 13.6562C30.7005 14.1979 31.0547 14.9583 31.1797 15.9375H29.7734C29.6536 15.276 29.375 14.7578 28.9375 14.3828C28.5 14.0078 27.8828 13.8203 27.0859 13.8203C26.7682 13.8203 26.4714 13.8542 26.1953 13.9219C25.9193 13.9844 25.6615 14.0859 25.4219 14.2266C25.1823 14.3672 24.9922 14.5677 24.8516 14.8281C24.7161 15.0833 24.6484 15.388 24.6484 15.7422C24.6484 16.0964 24.7266 16.3932 24.8828 16.6328C25.0391 16.8724 25.2474 17.0547 25.5078 17.1797C25.7734 17.3047 26.0755 17.4062 26.4141 17.4844C26.7578 17.5625 27.1172 17.6302 27.4922 17.6875C27.8724 17.7396 28.25 17.8021 28.625 17.875C29 17.9427 29.3568 18.0495 29.6953 18.1953C30.0391 18.3359 30.3411 18.5182 30.6016 18.7422C30.8672 18.9609 31.0781 19.263 31.2344 19.6484C31.3906 20.0339 31.4688 20.4922 31.4688 21.0234C31.4688 23.0443 30.263 24.1016 27.8516 24.1953V25.7578H26.4766V24.1406C24.2057 23.8698 22.9792 22.6484 22.7969 20.4766H24.2031C24.2969 21.3255 24.6276 21.9557 25.1953 22.3672C25.763 22.7734 26.5208 22.9766 27.4688 22.9766C27.8281 22.9766 28.1536 22.9453 28.4453 22.8828C28.7422 22.8203 29.0182 22.7188 29.2734 22.5781C29.5339 22.4375 29.7344 22.237 29.875 21.9766C30.0208 21.7109 30.0938 21.3932 30.0938 21.0234C30.0938 20.6432 30.0156 20.3255 29.8594 20.0703C29.7031 19.8099 29.4922 19.612 29.2266 19.4766C28.9661 19.3359 28.6641 19.224 28.3203 19.1406C27.9818 19.0573 27.6224 18.9896 27.2422 18.9375C26.8672 18.8802 26.4922 18.8177 26.1172 18.75C25.7422 18.6823 25.3828 18.5833 25.0391 18.4531C24.7005 18.3177 24.3984 18.1458 24.1328 17.9375C23.8724 17.7292 23.6641 17.4401 23.5078 17.0703C23.3516 16.6953 23.2734 16.2526 23.2734 15.7422C23.2734 15.2943 23.3385 14.8958 23.4688 14.5469C23.6042 14.1927 23.776 13.9062 23.9844 13.6875C24.1927 13.4635 24.4427 13.276 24.7344 13.125C25.026 12.9688 25.3099 12.8568 25.5859 12.7891C25.8672 12.7161 26.1641 12.6667 26.4766 12.6406Z" fill="#D3D3D3"/>
<path d="M44.0078 24H42.6016L41.3672 21.2188H35.5781L34.3438 24H32.9375L37.8984 12.7969H39.0469L44.0078 24ZM36.1094 20H40.8438L38.5078 14.7188H38.4453L36.1094 20ZM52.1406 23.875C51.5625 24.0885 50.9323 24.1953 50.25 24.1953C49.5677 24.1953 48.9349 24.0885 48.3516 23.875C47.7734 23.6562 47.2682 23.3411 46.8359 22.9297C46.4036 22.5182 46.0625 21.9948 45.8125 21.3594C45.5677 20.7188 45.4453 20 45.4453 19.2031V12.7969H46.8203V19.2031C46.8203 20.401 47.1406 21.3255 47.7812 21.9766C48.4271 22.6224 49.25 22.9453 50.25 22.9453C51.25 22.9453 52.0703 22.6224 52.7109 21.9766C53.3516 21.3255 53.6719 20.401 53.6719 19.2031V12.7969H55.0469V19.2031C55.0469 20 54.9245 20.7188 54.6797 21.3594C54.4349 21.9948 54.0938 22.5182 53.6562 22.9297C53.224 23.3411 52.7188 23.6562 52.1406 23.875ZM58.1875 24V12.7969H62.4453C63.2422 12.7969 63.9844 12.9323 64.6719 13.2031C65.3646 13.474 65.9609 13.8516 66.4609 14.3359C66.9661 14.8151 67.362 15.4062 67.6484 16.1094C67.9349 16.8125 68.0781 17.5755 68.0781 18.3984C68.0781 19.2214 67.9349 19.9844 67.6484 20.6875C67.362 21.3906 66.9661 21.9844 66.4609 22.4688C65.9609 22.9479 65.3646 23.3229 64.6719 23.5938C63.9844 23.8646 63.2422 24 62.4453 24H58.1875ZM59.5625 22.75H62.4453C63.6693 22.75 64.6849 22.3516 65.4922 21.5547C66.2995 20.7526 66.7031 19.7005 66.7031 18.3984C66.7031 17.0964 66.2995 16.0469 65.4922 15.25C64.6849 14.4479 63.6693 14.0469 62.4453 14.0469H59.5625V22.75Z" fill="#1B1B1B"/>
<rect x="0.5" y="0.5" width="90" height="37" rx="7.5" stroke="#E4E4E4"/>
</svg>
