<svg width="91" height="38" viewBox="0 0 91 38" fill="none" xmlns="http://www.w3.org/2000/svg">
<rect x="0.5" y="0.5" width="90" height="37" rx="7.5" fill="#F6F6F6"/>
<path d="M25.8438 20.8828H28.2656V21.9219H25.8438V24H24.4531V21.9219H23.0938V20.8828H24.4531V12.5781H30.6484V13.8438H25.8438V17.8594H30.3438V19.1172H25.8438V20.8828Z" fill="#D3D3D3"/>
<path d="M38.25 24.1953C37.4427 24.1953 36.6901 24.0495 35.9922 23.7578C35.2943 23.4661 34.6979 23.0677 34.2031 22.5625C33.7083 22.0521 33.3203 21.4375 33.0391 20.7188C32.7578 20 32.6172 19.2266 32.6172 18.3984C32.6172 17.2943 32.8568 16.3021 33.3359 15.4219C33.8203 14.5365 34.4922 13.8464 35.3516 13.3516C36.2109 12.8568 37.1771 12.6094 38.25 12.6094C39.5833 12.6094 40.7214 12.9818 41.6641 13.7266C42.6068 14.4714 43.25 15.4635 43.5938 16.7031H42.1562C41.8438 15.8229 41.349 15.1302 40.6719 14.625C40 14.1146 39.1927 13.8594 38.25 13.8594C37.0156 13.8594 35.9974 14.2865 35.1953 15.1406C34.3932 15.9896 33.9922 17.0755 33.9922 18.3984C33.9922 19.7214 34.3932 20.8099 35.1953 21.6641C35.9974 22.5182 37.0156 22.9453 38.25 22.9453C39.1927 22.9453 40 22.6927 40.6719 22.1875C41.349 21.6771 41.8438 20.9792 42.1562 20.0938H43.5938C43.25 21.3333 42.6068 22.3281 41.6641 23.0781C40.7214 23.8229 39.5833 24.1953 38.25 24.1953ZM46.3203 24V12.7969H47.6953V17.5391H54.2578V12.7969H55.6328V24H54.2578V18.7812H47.6953V24H46.3203ZM60.4609 19.1016V24H59.0859V12.7969H67.6641V14.0469H60.4609V17.8594H66.8672V19.1016H60.4609Z" fill="#1B1B1B"/>
<rect x="0.5" y="0.5" width="90" height="37" rx="7.5" stroke="#E4E4E4"/>
</svg>
