<svg width="91" height="38" viewBox="0 0 91 38" fill="none" xmlns="http://www.w3.org/2000/svg">
<rect x="0.5" y="0.5" width="90" height="37" rx="7.5" fill="#F6F6F6"/>
<path d="M30.3281 18.3047V19.5547H22.7734V18.3047H25.3047V18.2422L21.75 12.7969H23.2812L26.5156 17.8594H26.5781L29.8125 12.7969H31.3516L27.7969 18.2422V18.3047H30.3281ZM22.7734 21.7578V20.5156H30.3281V21.7578H27.2344V24H25.8594V21.7578H22.7734Z" fill="#D3D3D3"/>
<path d="M39.0234 24.1953C38.2161 24.1953 37.4635 24.0495 36.7656 23.7578C36.0677 23.4661 35.4714 23.0677 34.9766 22.5625C34.4818 22.0521 34.0938 21.4375 33.8125 20.7188C33.5312 20 33.3906 19.2266 33.3906 18.3984C33.3906 17.2943 33.6302 16.3021 34.1094 15.4219C34.5938 14.5365 35.2656 13.8464 36.125 13.3516C36.9844 12.8568 37.9505 12.6094 39.0234 12.6094C40.3568 12.6094 41.4948 12.9818 42.4375 13.7266C43.3802 14.4714 44.0234 15.4635 44.3672 16.7031H42.9297C42.6172 15.8229 42.1224 15.1302 41.4453 14.625C40.7734 14.1146 39.9661 13.8594 39.0234 13.8594C37.7891 13.8594 36.7708 14.2865 35.9688 15.1406C35.1667 15.9896 34.7656 17.0755 34.7656 18.3984C34.7656 19.7214 35.1667 20.8099 35.9688 21.6641C36.7708 22.5182 37.7891 22.9453 39.0234 22.9453C39.9661 22.9453 40.7734 22.6927 41.4453 22.1875C42.1224 21.6771 42.6172 20.9792 42.9297 20.0938H44.3672C44.0234 21.3333 43.3802 22.3281 42.4375 23.0781C41.4948 23.8229 40.3568 24.1953 39.0234 24.1953ZM56.7578 12.7969V24H55L48.5391 14.7188H48.4688V24H47.0938V12.7969H48.8516L55.3203 22.0781H55.3828V12.7969H56.7578ZM63.6641 24V19.25L58.7812 12.7969H60.4453L64.3516 17.9531L68.25 12.7969H69.9141L65.0391 19.25V24H63.6641Z" fill="#1B1B1B"/>
<rect x="0.5" y="0.5" width="90" height="37" rx="7.5" stroke="#E4E4E4"/>
</svg>
