<svg width="91" height="38" viewBox="0 0 91 38" fill="none" xmlns="http://www.w3.org/2000/svg">
<rect x="0.5" y="0.5" width="90" height="37" rx="7.5" fill="#F6F6F6"/>
<path d="M19.0781 24V12.7969H20.3594V19.2656H21.6094L24.7734 16H26.4062L22.6953 19.8047L26.4375 24H24.8047L21.6406 20.4141H20.3594V24H19.0781ZM28.1406 24V16H29.4219V17.1875H29.4844C29.776 16.7969 30.125 16.5026 30.5312 16.3047C30.9427 16.1016 31.4688 16 32.1094 16H34.1875V17.1875H32.1094C31.2865 17.1875 30.6328 17.3984 30.1484 17.8203C29.6641 18.237 29.4219 18.8359 29.4219 19.6172V24H28.1406Z" fill="#D3D3D3"/>
<path d="M46.2188 12.7969V24H44.4609L38 14.7188H37.9297V24H36.5547V12.7969H38.3125L44.7812 22.0781H44.8438V12.7969H46.2188ZM57.6172 23.4531C56.7526 23.9479 55.7917 24.1953 54.7344 24.1953C53.6771 24.1953 52.7135 23.9479 51.8438 23.4531C50.9792 22.9583 50.2943 22.2682 49.7891 21.3828C49.2891 20.4922 49.0391 19.4974 49.0391 18.3984C49.0391 17.5755 49.1849 16.8047 49.4766 16.0859C49.7734 15.362 50.1745 14.7474 50.6797 14.2422C51.1901 13.737 51.7943 13.3385 52.4922 13.0469C53.1953 12.7552 53.9427 12.6094 54.7344 12.6094C55.526 12.6094 56.2708 12.7552 56.9688 13.0469C57.6719 13.3385 58.276 13.737 58.7812 14.2422C59.2917 14.7474 59.6927 15.362 59.9844 16.0859C60.2812 16.8047 60.4297 17.5755 60.4297 18.3984C60.4297 19.4974 60.1771 20.4922 59.6719 21.3828C59.1719 22.2682 58.487 22.9583 57.6172 23.4531ZM52.5547 22.3672C53.2161 22.7526 53.9427 22.9453 54.7344 22.9453C55.526 22.9453 56.25 22.7526 56.9062 22.3672C57.5677 21.9818 58.0911 21.4401 58.4766 20.7422C58.862 20.0443 59.0547 19.263 59.0547 18.3984C59.0547 17.5339 58.862 16.7526 58.4766 16.0547C58.0911 15.3568 57.5677 14.8177 56.9062 14.4375C56.25 14.0521 55.526 13.8594 54.7344 13.8594C53.9427 13.8594 53.2161 14.0521 52.5547 14.4375C51.8984 14.8177 51.3776 15.3568 50.9922 16.0547C50.6068 16.7526 50.4141 17.5339 50.4141 18.3984C50.4141 19.263 50.6068 20.0443 50.9922 20.7422C51.3776 21.4401 51.8984 21.9818 52.5547 22.3672ZM63.2422 24V12.7969H64.6172V17.5391H66.2969L70.7812 12.7969H72.5547L67.4375 18.2109L72.6484 24H70.8125L66.1406 18.7812H64.6172V24H63.2422Z" fill="#1B1B1B"/>
<rect x="0.5" y="0.5" width="90" height="37" rx="7.5" stroke="#E4E4E4"/>
</svg>
