<svg width="91" height="38" viewBox="0 0 91 38" fill="none" xmlns="http://www.w3.org/2000/svg">
<rect x="0.5" y="0.5" width="90" height="37" rx="7.5" fill="#F6F6F6"/>
<path d="M22.2969 16.6094H28.9844C29.3906 16.2604 29.5938 15.8438 29.5938 15.3594C29.5938 14.3594 28.8359 13.8594 27.3203 13.8594C26.5078 13.8594 25.9167 14.0026 25.5469 14.2891C25.1823 14.5755 24.9219 15.0286 24.7656 15.6484H23.3594C23.5156 14.6172 23.9427 13.8542 24.6406 13.3594C25.3385 12.8594 26.2318 12.6094 27.3203 12.6094C27.8151 12.6094 28.276 12.6589 28.7031 12.7578C29.1354 12.8568 29.5208 13.0052 29.8594 13.2031C30.2031 13.401 30.474 13.6641 30.6719 13.9922C30.8698 14.3151 30.9688 14.6849 30.9688 15.1016C30.9688 15.6484 30.7891 16.1302 30.4297 16.5469V16.6094H32.0625V17.8203H22.2969V16.6094ZM27.1641 24.1953C26.388 24.1953 25.6901 24.099 25.0703 23.9062C24.4557 23.7135 23.9557 23.4141 23.5703 23.0078C23.1901 22.5964 23 22.1068 23 21.5391C23 20.9766 23.1823 20.4844 23.5469 20.0625V20H22.2969V18.7812H32.0625V20H24.8906C24.5521 20.3385 24.3828 20.7344 24.3828 21.1875C24.3828 21.4688 24.4401 21.7188 24.5547 21.9375C24.6745 22.151 24.8255 22.3203 25.0078 22.4453C25.1901 22.5703 25.4089 22.6719 25.6641 22.75C25.9193 22.8281 26.1641 22.8802 26.3984 22.9062C26.638 22.9323 26.8932 22.9453 27.1641 22.9453C28.0026 22.9453 28.6615 22.7917 29.1406 22.4844C29.625 22.1771 29.9375 21.6693 30.0781 20.9609H31.4844C31.3594 22.0234 30.9141 22.8281 30.1484 23.375C29.388 23.9219 28.3932 24.1953 27.1641 24.1953Z" fill="#D3D3D3"/>
<path d="M41.2812 23.875C40.7031 24.0885 40.0729 24.1953 39.3906 24.1953C38.7083 24.1953 38.0755 24.0885 37.4922 23.875C36.9141 23.6562 36.4089 23.3411 35.9766 22.9297C35.5443 22.5182 35.2031 21.9948 34.9531 21.3594C34.7083 20.7188 34.5859 20 34.5859 19.2031V12.7969H35.9609V19.2031C35.9609 20.401 36.2812 21.3255 36.9219 21.9766C37.5677 22.6224 38.3906 22.9453 39.3906 22.9453C40.3906 22.9453 41.2109 22.6224 41.8516 21.9766C42.4922 21.3255 42.8125 20.401 42.8125 19.2031V12.7969H44.1875V19.2031C44.1875 20 44.0651 20.7188 43.8203 21.3594C43.5755 21.9948 43.2344 22.5182 42.7969 22.9297C42.3646 23.3411 41.8594 23.6562 41.2812 23.875ZM56.6953 24H55.2891L54.0547 21.2188H48.2656L47.0312 24H45.625L50.5859 12.7969H51.7344L56.6953 24ZM48.7969 20H53.5312L51.1953 14.7188H51.1328L48.7969 20ZM58.7812 24V12.7969H60.1562V17.5391H66.7188V12.7969H68.0938V24H66.7188V18.7812H60.1562V24H58.7812Z" fill="#1B1B1B"/>
<rect x="0.5" y="0.5" width="90" height="37" rx="7.5" stroke="#E4E4E4"/>
</svg>
